<svg xmlns="http://www.w3.org/2000/svg" xmlns:xlink="http://www.w3.org/1999/xlink" width="1920" height="1080" style="width:100%;height:100%;transform:translate3d(0,0,0);content-visibility:visible"><defs><mask id="N" mask-type="alpha"><use xlink:href="#h"/></mask><mask id="H" mask-type="alpha"><g filter="url(#i)"><use xlink:href="#j"/></g></mask><mask id="G" mask-type="alpha"><g filter="url(#k)"><use xlink:href="#l"/></g></mask><mask id="F" mask-type="alpha"><g filter="url(#m)"><use xlink:href="#n"/></g></mask><mask id="L" mask-type="alpha"><g filter="url(#o)"><use xlink:href="#p"/></g></mask><mask id="M" mask-type="alpha"><g filter="url(#q)"><use xlink:href="#r"/></g></mask><mask id="E" mask-type="alpha"><g filter="url(#s)"><use xlink:href="#t"/></g></mask><mask id="D" mask-type="alpha"><g filter="url(#u)"><use xlink:href="#v"/></g></mask><mask id="I" mask-type="alpha"><g filter="url(#w)"><use xlink:href="#x"/></g></mask><mask id="J" mask-type="alpha"><g filter="url(#y)"><use xlink:href="#z"/></g></mask><mask id="K" mask-type="alpha"><g filter="url(#A)"><use xlink:href="#B"/></g></mask><filter id="i" width="100%" height="100%" x="0%" y="0%" filterUnits="objectBoundingBox"><feComponentTransfer in="SourceGraphic"><feFuncA tableValues="1.0 0.0" type="table"/></feComponentTransfer></filter><filter id="k" width="100%" height="100%" x="0%" y="0%" filterUnits="objectBoundingBox"><feComponentTransfer in="SourceGraphic"><feFuncA tableValues="1.0 0.0" type="table"/></feComponentTransfer></filter><filter id="m" width="100%" height="100%" x="0%" y="0%" filterUnits="objectBoundingBox"><feComponentTransfer in="SourceGraphic"><feFuncA tableValues="1.0 0.0" type="table"/></feComponentTransfer></filter><filter id="o" width="100%" height="100%" x="0%" y="0%" filterUnits="objectBoundingBox"><feComponentTransfer in="SourceGraphic"><feFuncA tableValues="1.0 0.0" type="table"/></feComponentTransfer></filter><filter id="q" width="100%" height="100%" x="0%" y="0%" filterUnits="objectBoundingBox"><feComponentTransfer in="SourceGraphic"><feFuncA tableValues="1.0 0.0" type="table"/></feComponentTransfer></filter><filter id="s" width="100%" height="100%" x="0%" y="0%" filterUnits="objectBoundingBox"><feComponentTransfer in="SourceGraphic"><feFuncA tableValues="1.0 0.0" type="table"/></feComponentTransfer></filter><filter id="u" width="100%" height="100%" x="0%" y="0%" filterUnits="objectBoundingBox"><feComponentTransfer in="SourceGraphic"><feFuncA tableValues="1.0 0.0" type="table"/></feComponentTransfer></filter><filter id="w" width="100%" height="100%" x="0%" y="0%" filterUnits="objectBoundingBox"><feComponentTransfer in="SourceGraphic"><feFuncA tableValues="1.0 0.0" type="table"/></feComponentTransfer></filter><filter id="y" width="100%" height="100%" x="0%" y="0%" filterUnits="objectBoundingBox"><feComponentTransfer in="SourceGraphic"><feFuncA tableValues="1.0 0.0" type="table"/></feComponentTransfer></filter><filter id="A" width="100%" height="100%" x="0%" y="0%" filterUnits="objectBoundingBox"><feComponentTransfer in="SourceGraphic"><feFuncA tableValues="1.0 0.0" type="table"/></feComponentTransfer></filter><g id="v" style="display:block"><path fill="red" d="m767.299 506.774 16.75-21.963-3.158-30.378a1603.997 1603.997 0 0 1-3.237-6.786c-87.77 10.015-99.66 46.195-81.41 86.05C550.448 556.97 417.78 740.234 456.516 873.457c3.893 13.263 7.66 26.42 13.26 37.191m340.282-321.472c.017-.19.024-.38.05-.569 34.274 40.012 58.75 78.093 99.099 165.693 40.349 87.59 43.849-69.922 43.849-69.922s-16.362-91.422-14.644-89.321c2.297-3.923-24.184 24.516-21.73 20.399-46.217-38.405-149.384-108.681-149.384-108.681l-2.593-1.991-18.166 20.653s27.686 20.511 63.52 63.739zm217.46 353.016s-63.935-206.169-57.014-269.867c11.67-107.47 3.045-147.293-13.399-159.58l-9.105-4.909s7.033 67.835-35.27 106.462c-37.923 34.617.353 15.792 2.043 16.11 0 0-1.204 6.433-4.198 21.208-1.992 9.847.8 10.994 2.799 17.988 2.728 4.727 4.766 10 2.049 17.952-.89 2.6-3.648 27.29-9.111 60.77a719.098 719.098 0 0 1 20.923 54.808c41.794 124.443 36.542 137.679 36.542 137.679l63.74 1.38zm256.582 27.177c-4.22-36.128-36.511-230.624-253.685-407.745-3.967-30.445-14.938-78.514-79.137-103.024m37.688 203.598s-4.66 65.158 7.995 112.555m30.523-213.99c.552 4.28.975 8.218 1.385 11.684 4.757 40.009-9.331 65.976-18.61 83.986 23.887-15.672 40.695-46.488 49.47-70.138-9.329-8.008-22.1-17.416-32.245-25.533zM698.643 532.01c-16.425 2.763-43.52 9.958-63.293 22.65 13.237 7.824 78.66 50.156 132.485 76.057.438-.235 3.61-5.128 5.176-7.025-29.43-25.015-60.037-60.277-74.368-91.682z"/><path fill="#FD7623" d="M810.055 589.173c.017-.189.028-.378.05-.566 34.278 40.01 58.752 78.092 99.102 165.687 40.35 87.596 43.845-69.917 43.845-69.917s-16.362-91.423-14.638-89.326c2.3-3.916-24.183 24.523-21.733 20.408-46.217-38.405-149.386-108.683-149.386-108.683l-2.585-1.997-18.171 20.654s27.689 20.512 63.516 63.74z"/><path fill="#FD7623" d="M1027.52 942.194s-63.933-206.17-57.016-269.865c11.672-107.476 3.046-147.3-13.403-159.585l-9.1-4.91s7.034 67.835-35.271 106.46c-37.92 34.622.357 15.793 2.047 16.114 0 0-1.211 6.437-4.2 21.207-1.993 9.849.796 10.995 2.8 17.988 2.723 4.724 4.762 9.999 2.048 17.95-.888 2.6-3.65 27.295-9.108 60.77a721.71 721.71 0 0 1 20.918 54.814c41.793 124.439 36.542 137.672 36.542 137.672l63.743 1.385z"/><path fill-opacity="0" stroke="#2D176A" stroke-linecap="round" stroke-linejoin="round" stroke-width="6" d="M1284.1 969.366c-4.224-36.126-36.508-230.625-253.681-407.747-3.97-30.436-14.937-78.51-79.137-103.024"/><path fill-opacity="0" stroke="#2D176A" stroke-linecap="round" stroke-linejoin="round" stroke-width="8" d="M988.962 662.198s-4.658 65.158 8 112.553"/><path fill="#2D176A" d="M1027.487 560.76c.554 4.286.974 8.222 1.386 11.683 4.755 40.007-9.333 65.976-18.609 83.991 23.882-15.677 40.69-46.495 49.467-70.143-9.326-8.002-22.106-17.412-32.244-25.532zM698.643 532.01c-16.424 2.763-43.517 9.957-63.294 22.656 13.242 7.822 78.665 50.152 132.488 76.05.436-.233 3.608-5.126 5.173-7.022-29.427-25.015-60.037-60.278-74.367-91.684z"/></g><g id="t" clip-path="url(#a)" style="display:block"><g style="display:block"><path fill="#7772B8" d="M1247 960v275H331V960h916zM460 860v66h-78v-66h78zM601 828v114h-45V828h45zM757 855v79h-85v-79h85z"/></g><g style="display:block"><path fill="red" d="m785.762 360.406 12.242 1.206c5.107 7.395 15.327 46.604 16.388 64.218 0 0 43.93-6.772 103.364 2.988 0 0 31.872 6.392 44.202 12.572 9.416-30.82 18.777-71.466 20.627-110.697 2.742-58.336-66.349-66.298-76.468-67.25-108.701-10.312-120.36 96.73-120.36 96.73l.005.233zm12.242 1.206-22.224-2.196s2.586 77.09 5.034 98.08c2.448 20.99 5.15 30.636 27.798 53.91 6.982 7.173 16.931 13.894 28.273 19.005 0 0 24.826 11.578 52.112 5.075 32.627-7.775 49.127-34.159 49.127-34.159 16.657-27.487 24.031-59.838 24.031-59.838-12.184-6.213-44.399-12.67-44.399-12.67-59.434-9.76-103.364-2.99-103.364-2.99-1.06-17.613-11.281-56.822-16.388-64.217z"/><path fill-opacity="0" stroke="#2D176A" stroke-linecap="round" stroke-linejoin="round" stroke-width="6" d="m785.765 360.403 12.238 1.21c5.104 7.393 15.334 46.6 16.389 64.214 0 0 43.93-6.77 103.367 2.992 0 0 31.868 6.393 44.199 12.57 9.42-30.816 18.777-71.462 20.623-110.7 2.748-58.335-66.345-66.29-76.465-67.249-108.706-10.308-120.357 96.737-120.357 96.737l.006.226z"/><path fill-opacity="0" stroke="#2D176A" stroke-linecap="round" stroke-linejoin="round" stroke-width="6" d="m798.002 361.614-22.219-2.198s2.585 77.09 5.03 98.08c2.444 20.99 5.15 30.635 27.802 53.908 6.98 7.172 16.926 13.899 28.274 19.006 0 0 24.824 11.583 52.106 5.08 32.63-7.779 49.126-34.16 49.126-34.16 16.658-27.49 24.034-59.845 24.034-59.845-12.19-6.207-44.396-12.665-44.396-12.665-59.44-9.763-103.368-2.993-103.368-2.993-1.055-17.613-11.285-56.82-16.39-64.213z"/></g><g style="display:block"><path fill="#FFF" d="m839.1 804.91 1.372 55.58 92.239-30.299c23.955 27.53 38.777 14.378 34.273 8.177-4.504-6.202-32.515-30.462-32.515-30.462s2.79-.858 26.636 17.856c23.846 18.714 32.697 3.604 28.82-1.525-3.878-5.13-43.968-33.011-43.968-33.011l37.711 21.111c12.996 7.89 23.915-.945 20.426-7.964-2.285-4.597-25.905-19.417-45.344-30.46 0 0 26.475 10.56 40.3 14.46 13.827 3.898 16.026-9.18 10.927-14.054-5.098-4.874-61.826-20.206-74.04-21.89-8.786-1.211-62.926 10.837-92.612 17.692-11.576 2.673-4.224 34.79-4.224 34.79z"/><path fill-opacity="0" stroke="#2D176A" stroke-linecap="round" stroke-linejoin="round" stroke-width="6" d="m839.1 804.91 1.372 55.58 92.239-30.299c23.955 27.53 38.777 14.378 34.273 8.177-4.504-6.202-32.515-30.462-32.515-30.462s2.79-.858 26.636 17.856c23.846 18.714 32.697 3.604 28.82-1.525-3.878-5.13-43.968-33.011-43.968-33.011l37.711 21.111c12.996 7.89 23.915-.945 20.426-7.964-2.285-4.597-25.905-19.417-45.344-30.46 0 0 26.475 10.56 40.3 14.46 13.827 3.898 16.026-9.18 10.927-14.054-5.098-4.874-61.826-20.206-74.04-21.89-8.786-1.211-62.926 10.837-92.612 17.692-11.576 2.673-4.224 34.79-4.224 34.79z"/></g><g style="display:block"><path fill="red" d="M563.333 975.327c77.014 10.391 242.042-82.941 249.601-85.121 17.505-5.036 11.917-21.206 24.693-26.884 12.776-5.678 17.01-10.434 17.01-10.434-14.552-33.192 4.314-86.803 4.314-86.803s-4.17-1.6-17.098-5.427c-12.924-3.84-7.843-20.774-25.462-23.29-11.703-1.678-175.957 4.5-175.957 4.5M839.63 865.66c13.82-5.997 19.792-8.697 19.792-8.697-15.783-35.147 3.17-94.235 3.17-94.235s-4.51-1.702-18.5-5.77c-5.637-1.64-8.112-5.516-10.309-9.753-36.843 19.86-27.323 102.838-9.525 133.535 7.181-7.344 4.896-10.523 15.372-15.08zM633.39 687.432s57.192 16.69 50.836 51.998"/><path fill-opacity="0" stroke="#2D176A" stroke-linecap="round" stroke-linejoin="round" stroke-width="6" d="M563.335 975.326c77.013 10.397 242.036-82.941 249.602-85.12 17.504-5.04 11.91-21.206 24.69-26.885 12.78-5.679 17.014-10.434 17.014-10.434-14.556-33.191 4.306-86.8 4.306-86.8s-4.164-1.599-17.09-5.433c-12.927-3.834-7.843-20.767-25.465-23.286-11.704-1.673-175.955 4.503-175.955 4.503"/><path fill="#2D176A" d="M839.63 865.661c13.822-6.003 19.792-8.695 19.792-8.695-15.789-35.154 3.165-94.241 3.165-94.241s-4.51-1.698-18.501-5.767c-5.632-1.637-8.108-5.52-10.302-9.75-36.841 19.856-27.322 102.835-9.526 133.533 7.181-7.347 4.891-10.528 15.371-15.08z"/><path fill-opacity="0" stroke="#2D176A" stroke-linecap="round" stroke-linejoin="round" stroke-width="6" d="M633.391 687.43s57.192 16.693 50.837 52"/></g><g style="display:block"><path fill="red" d="M914.855 756.704c11.656 5.61 30.334 13.69 40.326 13.091 15.85-.931 26.858 11.393 6.725 18.771-11.482 4.204-23.813 3.295-32.307 1.725"/></g></g><g id="r" style="display:block"><path fill="#7772B8" d="M1247 960v275H331V960h916zM460 860v66h-78v-66h78zM601 828v114h-45V828h45zM757 855v79h-85v-79h85z"/></g><g id="p" style="display:block"><path fill="#7772B8" d="M1247 960v275H331V960h916zM460 860v66h-78v-66h78zM601 828v114h-45V828h45zM757 855v79h-85v-79h85z"/></g><g id="n" clip-path="url(#b)" style="display:block"><path fill="#FFF" d="m-46.466 56.992 42.778 35.512 37.82-89.418c36.493.053 36.33-19.763 28.696-20.447-7.634-.684-44.331 4.469-44.331 4.469s1.189-2.666 30.968-8.328c29.779-5.661 24.214-22.265 17.8-22.716-6.414-.452-53.781 11.421-53.781 11.421l40.702-14.532c14.489-4.604 15.012-18.64 7.429-20.626-4.966-1.301-31.662 6.751-52.764 14.135 0 0 25.364-13.003 37.393-20.856 12.029-7.854 3.621-18.11-3.404-17.473-7.024.637-55.876 33.296-65.175 41.391-6.69 5.824-33.211 54.537-47.565 81.411-5.597 10.479 23.434 26.057 23.434 26.057z" style="display:block" transform="rotate(48.889 -426.373 1405.052)"/><g style="display:block"><path fill="red" d="M563.333 975.327c77.014 10.391 242.042-82.941 249.601-85.121 17.505-5.036 11.917-21.206 24.693-26.884 12.776-5.678 17.01-10.434 17.01-10.434-14.552-33.192 4.314-86.803 4.314-86.803s-4.17-1.6-17.098-5.427c-12.924-3.84-7.843-20.774-25.462-23.29-11.703-1.678-175.957 4.5-175.957 4.5m199.1 122.65c13.544-5.89 19.392-8.523 19.392-8.523-15.468-34.457 3.1-92.355 3.1-92.355s-4.416-1.667-18.126-5.654c-5.52-1.607-7.947-5.409-10.098-9.556-36.105 19.454-26.774 100.78-9.337 130.864 7.035-7.202 4.793-10.313 15.068-14.776zM633.387 687.432s57.193 16.69 50.837 51.998"/><path fill="#2D176A" d="M839.531 864.514c13.546-5.883 19.397-8.522 19.397-8.522-15.473-34.45 3.101-92.356 3.101-92.356s-4.419-1.664-18.13-5.652c-5.52-1.604-7.946-5.41-10.097-9.555-36.104 19.459-26.775 100.779-9.335 130.862 7.038-7.199 4.793-10.316 15.064-14.777z"/></g></g><g id="l" clip-path="url(#c)" style="display:block"><g style="display:block"><path fill="#FFF" d="m839.1 804.91 1.372 55.58 92.239-30.299c23.955 27.53 38.777 14.378 34.273 8.177-4.504-6.202-32.515-30.462-32.515-30.462s2.79-.858 26.636 17.856c23.846 18.714 32.697 3.604 28.82-1.525-3.878-5.13-43.968-33.011-43.968-33.011l37.711 21.111c12.996 7.89 23.915-.945 20.426-7.964-2.285-4.597-25.905-19.417-45.344-30.46 0 0 26.475 10.56 40.3 14.46 13.827 3.898 16.026-9.18 10.927-14.054-5.098-4.874-61.826-20.206-74.04-21.89-8.786-1.211-62.926 10.837-92.612 17.692-11.576 2.673-4.224 34.79-4.224 34.79z"/><path fill-opacity="0" stroke="#2D176A" stroke-linecap="round" stroke-linejoin="round" stroke-width="6" d="m839.1 804.91 1.372 55.58 92.239-30.299c23.955 27.53 38.777 14.378 34.273 8.177-4.504-6.202-32.515-30.462-32.515-30.462s2.79-.858 26.636 17.856c23.846 18.714 32.697 3.604 28.82-1.525-3.878-5.13-43.968-33.011-43.968-33.011l37.711 21.111c12.996 7.89 23.915-.945 20.426-7.964-2.285-4.597-25.905-19.417-45.344-30.46 0 0 26.475 10.56 40.3 14.46 13.827 3.898 16.026-9.18 10.927-14.054-5.098-4.874-61.826-20.206-74.04-21.89-8.786-1.211-62.926 10.837-92.612 17.692-11.576 2.673-4.224 34.79-4.224 34.79z"/></g><g style="display:block"><path fill="red" d="M563.333 975.327c77.014 10.391 242.042-82.941 249.601-85.121 17.505-5.036 11.917-21.206 24.693-26.884 12.776-5.678 17.01-10.434 17.01-10.434-14.552-33.192 4.314-86.803 4.314-86.803s-4.17-1.6-17.098-5.427c-12.924-3.84-7.843-20.774-25.462-23.29-11.703-1.678-175.957 4.5-175.957 4.5M839.63 865.66c13.82-5.997 19.792-8.697 19.792-8.697-15.783-35.147 3.17-94.235 3.17-94.235s-4.51-1.702-18.5-5.77c-5.637-1.64-8.112-5.516-10.309-9.753-36.843 19.86-27.323 102.838-9.525 133.535 7.181-7.344 4.896-10.523 15.372-15.08zM633.39 687.432s57.192 16.69 50.836 51.998"/><path fill-opacity="0" stroke="#2D176A" stroke-linecap="round" stroke-linejoin="round" stroke-width="6" d="M563.335 975.326c77.013 10.397 242.036-82.941 249.602-85.12 17.504-5.04 11.91-21.206 24.69-26.885 12.78-5.679 17.014-10.434 17.014-10.434-14.556-33.191 4.306-86.8 4.306-86.8s-4.164-1.599-17.09-5.433c-12.927-3.834-7.843-20.767-25.465-23.286-11.704-1.673-175.955 4.503-175.955 4.503"/><path fill="#2D176A" d="M839.63 865.661c13.822-6.003 19.792-8.695 19.792-8.695-15.789-35.154 3.165-94.241 3.165-94.241s-4.51-1.698-18.501-5.767c-5.632-1.637-8.108-5.52-10.302-9.75-36.841 19.856-27.322 102.835-9.526 133.533 7.181-7.347 4.891-10.528 15.371-15.08z"/><path fill-opacity="0" stroke="#2D176A" stroke-linecap="round" stroke-linejoin="round" stroke-width="6" d="M633.391 687.43s57.192 16.693 50.837 52"/></g></g><g id="j" clip-path="url(#d)" style="display:block"><path fill="#FFF" d="m-46.466 56.992 42.778 35.512 37.82-89.418c36.493.053 36.33-19.763 28.696-20.447-7.634-.684-44.331 4.469-44.331 4.469s1.189-2.666 30.968-8.328c29.779-5.661 24.214-22.265 17.8-22.716-6.414-.452-53.781 11.421-53.781 11.421l40.702-14.532c14.489-4.604 15.012-18.64 7.429-20.626-4.966-1.301-31.662 6.751-52.764 14.135 0 0 25.364-13.003 37.393-20.856 12.029-7.854 3.621-18.11-3.404-17.473-7.024.637-55.876 33.296-65.175 41.391-6.69 5.824-33.211 54.537-47.565 81.411-5.597 10.479 23.434 26.057 23.434 26.057z" style="display:block" transform="rotate(48.889 -426.373 1405.052)"/><g style="display:block"><path fill="red" d="M563.333 975.327c77.014 10.391 242.042-82.941 249.601-85.121 17.505-5.036 11.917-21.206 24.693-26.884 12.776-5.678 17.01-10.434 17.01-10.434-14.552-33.192 4.314-86.803 4.314-86.803s-4.17-1.6-17.098-5.427c-12.924-3.84-7.843-20.774-25.462-23.29-11.703-1.678-175.957 4.5-175.957 4.5m199.1 122.65c13.544-5.89 19.392-8.523 19.392-8.523-15.468-34.457 3.1-92.355 3.1-92.355s-4.416-1.667-18.126-5.654c-5.52-1.607-7.947-5.409-10.098-9.556-36.105 19.454-26.774 100.78-9.337 130.864 7.035-7.202 4.793-10.313 15.068-14.776zM633.387 687.432s57.193 16.69 50.837 51.998"/><path fill="#2D176A" d="M839.531 864.514c13.546-5.883 19.397-8.522 19.397-8.522-15.473-34.45 3.101-92.356 3.101-92.356s-4.419-1.664-18.13-5.652c-5.52-1.604-7.946-5.41-10.097-9.555-36.104 19.459-26.775 100.779-9.335 130.862 7.038-7.199 4.793-10.316 15.064-14.777z"/></g></g><g id="x" clip-path="url(#e)" style="display:block"><path fill="#FFF" d="m-46.466 56.992 42.778 35.512 37.82-89.418c36.493.053 36.33-19.763 28.696-20.447-7.634-.684-44.331 4.469-44.331 4.469s1.189-2.666 30.968-8.328c29.779-5.661 24.214-22.265 17.8-22.716-6.414-.452-53.781 11.421-53.781 11.421l40.702-14.532c14.489-4.604 15.012-18.64 7.429-20.626-4.966-1.301-31.662 6.751-52.764 14.135 0 0 25.364-13.003 37.393-20.856 12.029-7.854 3.621-18.11-3.404-17.473-7.024.637-55.876 33.296-65.175 41.391-6.69 5.824-33.211 54.537-47.565 81.411-5.597 10.479 23.434 26.057 23.434 26.057z" style="display:block" transform="rotate(48.889 -426.373 1405.052)"/><g style="display:block"><path fill="red" d="M563.333 975.327c77.014 10.391 242.042-82.941 249.601-85.121 17.505-5.036 11.917-21.206 24.693-26.884 12.776-5.678 17.01-10.434 17.01-10.434-14.552-33.192 4.314-86.803 4.314-86.803s-4.17-1.6-17.098-5.427c-12.924-3.84-7.843-20.774-25.462-23.29-11.703-1.678-175.957 4.5-175.957 4.5m199.1 122.65c13.544-5.89 19.392-8.523 19.392-8.523-15.468-34.457 3.1-92.355 3.1-92.355s-4.416-1.667-18.126-5.654c-5.52-1.607-7.947-5.409-10.098-9.556-36.105 19.454-26.774 100.78-9.337 130.864 7.035-7.202 4.793-10.313 15.068-14.776zM633.387 687.432s57.193 16.69 50.837 51.998"/><path fill="#2D176A" d="M839.531 864.514c13.546-5.883 19.397-8.522 19.397-8.522-15.473-34.45 3.101-92.356 3.101-92.356s-4.419-1.664-18.13-5.652c-5.52-1.604-7.946-5.41-10.097-9.555-36.104 19.459-26.775 100.779-9.335 130.862 7.038-7.199 4.793-10.316 15.064-14.777z"/></g></g><g id="z" clip-path="url(#f)" style="display:block"><path fill="#FFF" d="m-46.466 56.992 42.778 35.512 37.82-89.418c36.493.053 36.33-19.763 28.696-20.447-7.634-.684-44.331 4.469-44.331 4.469s1.189-2.666 30.968-8.328c29.779-5.661 24.214-22.265 17.8-22.716-6.414-.452-53.781 11.421-53.781 11.421l40.702-14.532c14.489-4.604 15.012-18.64 7.429-20.626-4.966-1.301-31.662 6.751-52.764 14.135 0 0 25.364-13.003 37.393-20.856 12.029-7.854 3.621-18.11-3.404-17.473-7.024.637-55.876 33.296-65.175 41.391-6.69 5.824-33.211 54.537-47.565 81.411-5.597 10.479 23.434 26.057 23.434 26.057z" style="display:block" transform="rotate(48.889 -426.373 1405.052)"/><g style="display:block"><path fill="red" d="M563.333 975.327c77.014 10.391 242.042-82.941 249.601-85.121 17.505-5.036 11.917-21.206 24.693-26.884 12.776-5.678 17.01-10.434 17.01-10.434-14.552-33.192 4.314-86.803 4.314-86.803s-4.17-1.6-17.098-5.427c-12.924-3.84-7.843-20.774-25.462-23.29-11.703-1.678-175.957 4.5-175.957 4.5m199.1 122.65c13.544-5.89 19.392-8.523 19.392-8.523-15.468-34.457 3.1-92.355 3.1-92.355s-4.416-1.667-18.126-5.654c-5.52-1.607-7.947-5.409-10.098-9.556-36.105 19.454-26.774 100.78-9.337 130.864 7.035-7.202 4.793-10.313 15.068-14.776zM633.387 687.432s57.193 16.69 50.837 51.998"/><path fill="#2D176A" d="M839.531 864.514c13.546-5.883 19.397-8.522 19.397-8.522-15.473-34.45 3.101-92.356 3.101-92.356s-4.419-1.664-18.13-5.652c-5.52-1.604-7.946-5.41-10.097-9.555-36.104 19.459-26.775 100.779-9.335 130.862 7.038-7.199 4.793-10.316 15.064-14.777z"/></g></g><g id="B" clip-path="url(#g)" style="display:block"><path fill="#FFF" d="m-46.466 56.992 42.778 35.512 37.82-89.418c36.493.053 36.33-19.763 28.696-20.447-7.634-.684-44.331 4.469-44.331 4.469s1.189-2.666 30.968-8.328c29.779-5.661 24.214-22.265 17.8-22.716-6.414-.452-53.781 11.421-53.781 11.421l40.702-14.532c14.489-4.604 15.012-18.64 7.429-20.626-4.966-1.301-31.662 6.751-52.764 14.135 0 0 25.364-13.003 37.393-20.856 12.029-7.854 3.621-18.11-3.404-17.473-7.024.637-55.876 33.296-65.175 41.391-6.69 5.824-33.211 54.537-47.565 81.411-5.597 10.479 23.434 26.057 23.434 26.057z" style="display:block" transform="rotate(48.889 -426.373 1405.052)"/><g style="display:block"><path fill="red" d="M563.333 975.327c77.014 10.391 242.042-82.941 249.601-85.121 17.505-5.036 11.917-21.206 24.693-26.884 12.776-5.678 17.01-10.434 17.01-10.434-14.552-33.192 4.314-86.803 4.314-86.803s-4.17-1.6-17.098-5.427c-12.924-3.84-7.843-20.774-25.462-23.29-11.703-1.678-175.957 4.5-175.957 4.5m199.1 122.65c13.544-5.89 19.392-8.523 19.392-8.523-15.468-34.457 3.1-92.355 3.1-92.355s-4.416-1.667-18.126-5.654c-5.52-1.607-7.947-5.409-10.098-9.556-36.105 19.454-26.774 100.78-9.337 130.864 7.035-7.202 4.793-10.313 15.068-14.776zM633.387 687.432s57.193 16.69 50.837 51.998"/><path fill="#2D176A" d="M839.531 864.514c13.546-5.883 19.397-8.522 19.397-8.522-15.473-34.45 3.101-92.356 3.101-92.356s-4.419-1.664-18.13-5.652c-5.52-1.604-7.946-5.41-10.097-9.555-36.104 19.459-26.775 100.779-9.335 130.862 7.038-7.199 4.793-10.316 15.064-14.777z"/></g></g><clipPath id="C"><path d="M0 0h1920v1080H0z"/></clipPath><clipPath id="a"><path d="M0 0h1920v1080H0z"/></clipPath><clipPath id="b"><path d="M0 0h1920v1080H0z"/></clipPath><clipPath id="c"><path d="M0 0h1920v1080H0z"/></clipPath><clipPath id="d"><path d="M0 0h1920v1080H0z"/></clipPath><clipPath id="e"><path d="M0 0h1920v1080H0z"/></clipPath><clipPath id="f"><path d="M0 0h1920v1080H0z"/></clipPath><clipPath id="g"><path d="M0 0h1920v1080H0z"/></clipPath><clipPath id="O"><path d="M0 0h1920v1080H0z"/></clipPath><path id="h" fill="#7772B8" d="M207-167v334h-414v-334h414z" style="display:block" transform="translate(1408 471)"/></defs><g clip-path="url(#C)"><g mask="url(#D)" style="display:block"><path fill="none" stroke="#2D176A" stroke-linecap="round" stroke-linejoin="round" stroke-width="6" d="M542.146 514.823c-77.019.004-131.668 62.113-122.061 138.724l30.4 304.584C747.999 957 754 959 754 959l-49.001-444.047-162.853-.13z"/><path fill="#5D21D1" d="M542.146 514.823c-77.019.004-131.668 62.113-122.061 138.724l30.4 304.584C747.999 957 754 959 754 959l-49.001-444.047-162.853-.13z"/></g><g mask="url(#E)" style="display:block"><path fill="#FE7624" d="M863.165 447.66c-104.663 2.875-31.481-1.092-31.481-1.092s-42.801-6.487-87.33 7.98c-44.527 14.465-17.728 78.432-17.728 78.432L605.88 667.877l-141.133 135.04 3.735 105.827s46.441 74.654 74.39 76.624c27.948 1.97 717.872-13.618 717.872-13.618L1069.03 613.893l-51.268-65.316-44.616-69.588s-5.318-34.205-109.98-31.33z"/><path fill="#FE7624" d="m767.295 506.775 16.76-21.966-3.16-30.373c-1.048-2.175-2.134-4.45-3.244-6.791-87.77 10.015-99.66 46.193-81.405 86.058C550.45 556.967 417.781 740.236 456.52 873.457c3.894 13.26 7.655 26.42 13.26 37.192M1284.1 969.366c-4.224-36.126-36.508-230.625-253.681-407.747-3.97-30.436-14.937-78.51-79.137-103.024"/><path fill="#FFF" d="M810.055 589.173c.017-.189.028-.378.05-.566 34.278 40.01 58.752 78.092 99.102 165.687 40.35 87.596 43.845-69.917 43.845-69.917s-16.362-91.423-14.638-89.326c2.3-3.916-24.183 24.523-21.733 20.408-46.217-38.405-149.386-108.683-149.386-108.683l-2.585-1.997-18.171 20.654s27.689 20.512 63.516 63.74z"/><path fill="#FFF" d="M1027.52 942.194s-63.933-206.17-57.016-269.865c11.672-107.476 3.046-147.3-13.403-159.585l-9.1-4.91s7.034 67.835-35.271 106.46c-37.92 34.622.357 15.793 2.047 16.114 0 0-1.211 6.437-4.2 21.207-1.993 9.849.796 10.995 2.8 17.988 2.723 4.724 4.762 9.999 2.048 17.95-.888 2.6-3.65 27.295-9.108 60.77a721.71 721.71 0 0 1 20.918 54.814c41.793 124.439 36.542 137.672 36.542 137.672l63.743 1.385z"/><path fill="none" stroke="#2D176A" stroke-linecap="round" stroke-linejoin="round" stroke-width="8" d="M988.962 662.198s-4.658 65.158 8 112.553"/><path fill="#2D176A" d="M1027.487 560.76c.554 4.286.974 8.222 1.386 11.683 4.755 40.007-9.333 65.976-18.609 83.991 23.882-15.677 40.69-46.495 49.467-70.143-9.326-8.002-22.106-17.412-32.244-25.532zM698.643 532.01c-16.424 2.763-43.517 9.957-63.294 22.656 13.242 7.822 78.665 50.152 132.488 76.05.436-.233 3.608-5.126 5.173-7.022-29.427-25.015-60.037-60.278-74.367-91.684z"/><path fill="#FFF" d="m793.362 431.629-9.015 53.81-17.505 21.21s87.144 58.112 147.2 106.706c40.846-44.15 33.93-105.286 33.93-105.286l-29.853-17.565 1.815-46.808-126.572-12.067z"/><path fill="none" stroke="#2E186A" stroke-linecap="round" stroke-linejoin="round" stroke-width="6" d="m793.362 431.629-9.015 53.81-17.505 21.21s87.144 58.112 147.2 106.706c40.846-44.15 33.93-105.286 33.93-105.286l-29.853-17.565 1.815-46.808-126.572-12.067z"/></g><g mask="url(#F)" style="display:block"><path fill="#FFF" d="M914.855 756.703c11.655 5.616 30.33 13.687 40.325 13.097 15.851-.935 26.86 11.386 6.724 18.767-11.478 4.208-23.816 3.294-32.304 1.73"/><path fill="none" stroke="#2D176A" stroke-linecap="round" stroke-linejoin="round" stroke-width="6" d="M914.855 756.703c11.655 5.616 30.33 13.687 40.325 13.097 15.851-.935 26.86 11.386 6.724 18.767-11.478 4.208-23.816 3.294-32.304 1.73"/></g><g style="display:block"><path fill="#FFF" d="M779.2 350.85s-37.965-6.045-37.263 29.027c.487 24.353 21.778 25.34 35.296 24.105"/><path fill="none" stroke="#2D176A" stroke-linecap="round" stroke-linejoin="round" stroke-width="6" d="M779.2 350.85s-37.965-6.045-37.263 29.027c.487 24.353 21.778 25.34 35.296 24.105"/></g><g mask="url(#G)" style="display:block"><path fill="#FFF" d="m785.765 360.403 12.238 1.21c5.104 7.393 15.334 46.6 16.389 64.214 0 0 43.93-6.77 103.367 2.992 0 0 31.868 6.393 44.199 12.57 9.42-30.816 18.777-71.462 20.623-110.7 2.748-58.335-66.345-66.29-76.465-67.249-108.706-10.308-120.357 96.737-120.357 96.737l.006.226z"/><path fill="none" stroke="#2D176A" stroke-linecap="round" stroke-linejoin="round" stroke-width="6" d="m785.765 360.403 12.238 1.21c5.104 7.393 15.334 46.6 16.389 64.214 0 0 43.93-6.77 103.367 2.992 0 0 31.868 6.393 44.199 12.57 9.42-30.816 18.777-71.462 20.623-110.7 2.748-58.335-66.345-66.29-76.465-67.249-108.706-10.308-120.357 96.737-120.357 96.737l.006.226z"/><path fill="none" stroke="#968BB4" stroke-linecap="round" stroke-linejoin="round" stroke-width="6" d="m798.002 361.614-22.219-2.198s2.585 77.09 5.03 98.08c2.444 20.99 5.15 30.635 27.802 53.908 6.98 7.172 16.926 13.899 28.274 19.006 0 0 24.824 11.583 52.106 5.08 32.63-7.779 49.126-34.16 49.126-34.16 16.658-27.49 24.034-59.845 24.034-59.845-12.19-6.207-44.396-12.665-44.396-12.665-59.44-9.763-103.368-2.993-103.368-2.993-1.055-17.613-11.285-56.82-16.39-64.213z"/><path fill="#968BB4" d="m798.002 361.614-22.219-2.198s2.585 77.09 5.03 98.08c2.444 20.99 5.15 30.635 27.802 53.908 6.98 7.172 16.926 13.899 28.274 19.006 0 0 24.824 11.583 52.106 5.08 32.63-7.779 49.126-34.16 49.126-34.16 16.658-27.49 24.034-59.845 24.034-59.845-12.19-6.207-44.396-12.665-44.396-12.665-59.44-9.763-103.368-2.993-103.368-2.993-1.055-17.613-11.285-56.82-16.39-64.213z"/></g><path fill="none" stroke="#2D176A" stroke-linecap="round" stroke-linejoin="round" stroke-width="8" d="M-9.107-24.93 9.625 24.93l-19.251-.102" style="display:block" transform="rotate(24.209 -547.539 2369.946)"/><path fill="#2D176A" d="M5.26-1.316c1.124 4.493-.32 8.725-3.226 9.452-2.904.726-6.17-2.327-7.294-6.82-1.124-4.492.321-8.724 3.226-9.45C.87-8.861 4.136-5.809 5.26-1.316z" style="display:block" transform="rotate(24.209 -487.418 2285.728)"/><path fill="#2D176A" d="M5.26-1.316c1.124 4.493-.32 8.724-3.226 9.45-2.904.727-6.17-2.325-7.294-6.818-1.124-4.492.321-8.724 3.226-9.45C.87-8.861 4.136-5.809 5.26-1.316z" style="display:block" transform="rotate(24.209 -485.398 2410.181)"/><path fill="none" stroke="#2D176A" stroke-linecap="round" stroke-linejoin="round" stroke-width="8" d="M-10.287 7.342S-5.282-5.832 10.287-7.342" style="display:block" transform="rotate(24.209 -384.948 2251.844)"/><path fill="none" stroke="#2D176A" stroke-linecap="round" stroke-linejoin="round" stroke-width="8" d="M-10.134 1.931s13.64-7.436 20.269 3.574" style="display:block" transform="rotate(24.209 -367.432 2422.653)"/><path fill="none" stroke="#2E186A" stroke-linecap="round" stroke-linejoin="round" stroke-width="8" d="M865.049 448.156s4.187 13.435 22.181 6.842" style="display:block" transform="rotate(24.209 820.947 484.645)"/><g mask="url(#J)" style="display:block"><path fill="none" stroke="#2D176A" stroke-linecap="round" stroke-linejoin="round" stroke-width="6" d="M1058.48 781.857c-.125 14.399-11.9 25.97-26.297 25.844-14.398-.126-25.968-11.9-25.843-26.297.126-14.399 11.899-25.97 26.297-25.844 14.399.126 25.97 11.899 25.844 26.297z"/><path fill="#FEBA91" d="m1024.642 831.678 2.277-27.658.013.012 4.17-50.825.581-7.047h-.002l-.456-.037-109.772-9.04-.003.032h-.002l-.583 7.113-4.176 50.726.015-.009-2.272 27.691c-1.355 16.512 10.933 30.997 27.447 32.352l28.086 2.305-.007-.016 22.323 1.839c16.513 1.36 31-10.926 32.36-27.438z"/></g><g mask="url(#L)" style="display:block"><path fill="#FFF" d="m839.1 804.91 1.372 55.58 92.239-30.299c23.955 27.53 38.777 14.378 34.273 8.177-4.504-6.202-32.515-30.462-32.515-30.462s2.79-.858 26.636 17.856c23.846 18.714 32.697 3.604 28.82-1.525-3.878-5.13-43.968-33.011-43.968-33.011l37.711 21.111c12.996 7.89 23.915-.945 20.426-7.964-2.285-4.597-25.905-19.417-45.344-30.46 0 0 26.475 10.56 40.3 14.46 13.827 3.898 16.026-9.18 10.927-14.054-5.098-4.874-61.826-20.206-74.04-21.89-8.786-1.211-62.926 10.837-92.612 17.692-11.576 2.673-4.224 34.79-4.224 34.79z"/><path fill="none" stroke="#2D176A" stroke-linecap="round" stroke-linejoin="round" stroke-width="6" d="m839.1 804.91 1.372 55.58 92.239-30.299c23.955 27.53 38.777 14.378 34.273 8.177-4.504-6.202-32.515-30.462-32.515-30.462s2.79-.858 26.636 17.856c23.846 18.714 32.697 3.604 28.82-1.525-3.878-5.13-43.968-33.011-43.968-33.011l37.711 21.111c12.996 7.89 23.915-.945 20.426-7.964-2.285-4.597-25.905-19.417-45.344-30.46 0 0 26.475 10.56 40.3 14.46 13.827 3.898 16.026-9.18 10.927-14.054-5.098-4.874-61.826-20.206-74.04-21.89-8.786-1.211-62.926 10.837-92.612 17.692-11.576 2.673-4.224 34.79-4.224 34.79z"/></g><g mask="url(#M)" style="display:block"><path fill="#FE7624" d="M671.03 710.107c-15.92-15.611-43.842-23.441-50.431-23.06-6.59.382-17.59 101.297-17.59 101.297L562.82 968.69s-1.436 10.1 10.441 6.348c11.877-3.751 111.56-226.12 111.56-226.12s2.13-23.202-13.79-38.812z"/><path fill="#FE7624" d="M563.335 975.326c77.013 10.397 242.036-82.941 249.602-85.12 17.504-5.04 11.91-21.206 24.69-26.885 12.78-5.679 17.014-10.434 17.014-10.434-14.556-33.191 4.306-86.8 4.306-86.8s-4.164-1.599-17.09-5.433c-12.927-3.834-7.843-20.767-25.465-23.286-11.704-1.673-175.955 4.503-175.955 4.503"/><path fill="none" stroke="#2D176A" stroke-linecap="round" stroke-linejoin="round" stroke-width="6" d="M563.335 975.326c77.013 10.397 242.036-82.941 249.602-85.12 17.504-5.04 11.91-21.206 24.69-26.885 12.78-5.679 17.014-10.434 17.014-10.434-14.556-33.191 4.306-86.8 4.306-86.8s-4.164-1.599-17.09-5.433c-12.927-3.834-7.843-20.767-25.465-23.286-11.704-1.673-175.955 4.503-175.955 4.503"/><path fill="#2D176A" d="M839.63 865.661c13.822-6.003 19.792-8.695 19.792-8.695-15.789-35.154 3.165-94.241 3.165-94.241s-4.51-1.698-18.501-5.767c-5.632-1.637-8.108-5.52-10.302-9.75-36.841 19.856-27.322 102.835-9.526 133.533 7.181-7.347 4.891-10.528 15.371-15.08z"/><path fill="#FE7624" d="M633.391 687.43s57.192 16.693 50.837 52"/><path fill="none" stroke="#2D176A" stroke-linecap="round" stroke-linejoin="round" stroke-width="6" d="M633.391 687.43s57.192 16.693 50.837 52"/></g><path fill="#2D176A" d="M-129.43 150.893s-19.125-22.166-32.934-48.652c-12.982-24.903-7.612-55.754 13.94-73.758 18.041-15.071 35.214-11.086 35.214-11.086s-31.063-31.636-6.572-72.574c8.634-14.433 22.949-24.772 39.377-28.373 40.204-8.811 60.976 21.843 60.976 21.843s23.095-89.186 122.311-64.643c10.009 2.476 23.224 13.054 30.195 20.652 42.269 46.071-37.288 133.08-85.675 150.494-53.132 19.12-87.301 18.072-108.187 9.127 15.017 4.578 15.561 89.242-68.645 96.97z" style="display:block" transform="rotate(26.115 -147.112 2208.467)"/><g mask="url(#N)" style="display:block"><g clip-path="url(#O)" transform="translate(0 -32.295)"><g style="display:block"><path fill="#5D21D1" d="M1316.574 603.086h-87.936a5 5 0 0 1-5-5v-7.892a5 5 0 0 1 5-5h87.936a5 5 0 0 1 5 5v7.892a5 5 0 0 1-5 5z"/><path fill="#FEBA91" d="M1485.833 575.424h-72.043a5 5 0 0 1-5-5v-7.894a5 5 0 0 1 5-5h72.043a5 5 0 0 1 5 5v7.894a5 5 0 0 1-5 5zM1395.29 575.424h-141.892a5 5 0 0 1-5-5v-7.894c0-2.76 2.239-5 5-5h141.892a5 5 0 0 1 5 5v7.894a5 5 0 0 1-5 5z"/><path fill="#5D21D1" d="M1513.597 547.759h-3.062c-2.76 0-5-2.239-5-5v-7.894c0-2.761 2.24-5 5-5h3.062a5 5 0 0 1 5 5v7.894a5 5 0 0 1-5 5z"/><path fill="#FD7623" d="M1493.514 547.76h-100.79a5 5 0 0 1-5-5v-8a5 5 0 0 1 5-5h100.79a5 5 0 0 1 5 5v8a5 5 0 0 1-5 5z"/><path fill="#5D21D1" d="M1375.703 547.706h-147.064a5 5 0 0 1-5-5v-7.892a5 5 0 0 1 5-5h147.064a5 5 0 0 1 5 5v7.892a5 5 0 0 1-5 5zM1536.44 519.988h-3.062a5 5 0 0 1-5-5v-7.892a5 5 0 0 1 5-5h3.062a5 5 0 0 1 5 5v7.892a5 5 0 0 1-5 5z"/><path fill="#FD7623" d="M1518.807 519.988h-79.805a5 5 0 0 1-5-5v-7.892c0-2.761 2.24-5 5-5h79.805a5 5 0 0 1 5 5v7.892a5 5 0 0 1-5 5z"/><path fill="#FEBA91" d="M1422.083 519.988h-98.622a5 5 0 0 1-5-5v-7.892a5 5 0 0 1 5-5h98.622a5 5 0 0 1 5 5v7.892a5 5 0 0 1-5 5z"/><path fill="#5D21D1" d="M1308.442 519.988h-79.804a5 5 0 0 1-5-5v-7.892a5 5 0 0 1 5-5h79.804a5 5 0 0 1 5 5v7.892a5 5 0 0 1-5 5z"/><path fill="#FEBA91" d="M1326.522 340.614h-3.062a5 5 0 0 1-5-5v-7.892a5 5 0 0 1 5-5h3.062a5 5 0 0 1 5 5v7.892a5 5 0 0 1-5 5z"/><path fill="#5D21D1" d="M1308.442 340.614h-79.804a5 5 0 0 1-5-5v-7.892a5 5 0 0 1 5-5h79.804a5 5 0 0 1 5 5v7.892a5 5 0 0 1-5 5zM1316.574 423.712h-87.936a5 5 0 0 1-5-5v-7.892a5 5 0 0 1 5-5h87.936a5 5 0 0 1 5 5v7.892a5 5 0 0 1-5 5z"/><path fill="#FEBA91" d="M1395.29 396.048h-141.892a5 5 0 0 1-5-5v-7.892a5 5 0 0 1 5-5h141.892a5 5 0 0 1 5 5v7.892a5 5 0 0 1-5 5zM1485.833 396.048h-72.043a5 5 0 0 1-5-5v-7.892a5 5 0 0 1 5-5h72.043a5 5 0 0 1 5 5v7.892a5 5 0 0 1-5 5z"/><path fill="#5D21D1" d="M1513.597 368.383h-3.062a5 5 0 0 1-5-5v-7.892c0-2.761 2.24-5 5-5h3.062a5 5 0 0 1 5 5v7.892a5 5 0 0 1-5 5zM1375.703 368.331h-147.064a5 5 0 0 1-5-5v-7.892a5 5 0 0 1 5-5h147.064a5 5 0 0 1 5 5v7.892a5 5 0 0 1-5 5zM1422.083 340.614h-79.804a5 5 0 0 1-5-5v-7.892a5 5 0 0 1 5-5h79.804a5 5 0 0 1 5 5v7.892a5 5 0 0 1-5 5z"/><path fill="#FD7623" d="M1493.514 368.385h-100.79a5 5 0 0 1-5-5v-8a5 5 0 0 1 5-5h100.79a5 5 0 0 1 5 5v8a5 5 0 0 1-5 5z"/><path fill="#FEBA91" d="M1326.522 493.177h-3.062a5 5 0 0 1-5-5v-7.892a5 5 0 0 1 5-5h3.062a5 5 0 0 1 5 5v7.892a5 5 0 0 1-5 5z"/><path fill="#5D21D1" d="M1308.442 493.177h-79.804a5 5 0 0 1-5-5v-7.892a5 5 0 0 1 5-5h79.804a5 5 0 0 1 5 5v7.892a5 5 0 0 1-5 5zM1422.083 493.177h-79.804a5 5 0 0 1-5-5v-7.892a5 5 0 0 1 5-5h79.804a5 5 0 0 1 5 5v7.892a5 5 0 0 1-5 5z"/></g><g style="display:block"><path fill="#5D21D1" d="M1223.606 935.086v-17.892 17.892z"/><path fill="#FEBA91" d="M1409.312 907.424V889.53v17.894zM1248.844 907.424V889.53v17.894z"/><path fill="#5D21D1" d="M1505.066 879.759v-17.894 17.894z"/><path fill="#FD7623" d="M1387.619 879.76v-18 18z"/><path fill="#5D21D1" d="M1224.171 879.706v-17.892 17.892zM1528.91 851.988v-17.892 17.892z"/><path fill="#FD7623" d="M1433.404 851.988v-17.892 17.892z"/><path fill="#FEBA91" d="M1318.522 851.988v-17.892 17.892z"/><path fill="#5D21D1" d="M1223.79 851.988v-17.892 17.892z"/><path fill="#FEBA91" d="M1326.522 672.614h-3.062a5 5 0 0 1-5-5v-7.892a5 5 0 0 1 5-5h3.062a5 5 0 0 1 5 5v7.892a5 5 0 0 1-5 5z"/><path fill="#5D21D1" d="M1308.442 672.614h-79.804a5 5 0 0 1-5-5v-7.892a5 5 0 0 1 5-5h79.804a5 5 0 0 1 5 5v7.892a5 5 0 0 1-5 5zM1316.574 755.712h-87.936a5 5 0 0 1-5-5v-7.892a5 5 0 0 1 5-5h87.936a5 5 0 0 1 5 5v7.892a5 5 0 0 1-5 5z"/><path fill="#FEBA91" d="M1395.29 728.048h-141.892a5 5 0 0 1-5-5v-7.892a5 5 0 0 1 5-5h141.892a5 5 0 0 1 5 5v7.892a5 5 0 0 1-5 5zM1485.833 728.048h-72.043a5 5 0 0 1-5-5v-7.892a5 5 0 0 1 5-5h72.043a5 5 0 0 1 5 5v7.892a5 5 0 0 1-5 5z"/><path fill="#5D21D1" d="M1513.597 700.383h-3.062a5 5 0 0 1-5-5v-7.892c0-2.761 2.24-5 5-5h3.062a5 5 0 0 1 5 5v7.892a5 5 0 0 1-5 5zM1375.703 700.331h-147.064a5 5 0 0 1-5-5v-7.892a5 5 0 0 1 5-5h147.064a5 5 0 0 1 5 5v7.892a5 5 0 0 1-5 5zM1422.083 672.614h-79.804a5 5 0 0 1-5-5v-7.892a5 5 0 0 1 5-5h79.804a5 5 0 0 1 5 5v7.892a5 5 0 0 1-5 5z"/><path fill="#FD7623" d="M1493.514 700.385h-100.79a5 5 0 0 1-5-5v-8a5 5 0 0 1 5-5h100.79a5 5 0 0 1 5 5v8a5 5 0 0 1-5 5z"/><path fill="#FEBA91" d="M1326.522 825.177h-3.062a5 5 0 0 1-5-5v-7.892a5 5 0 0 1 5-5h3.062a5 5 0 0 1 5 5v7.892a5 5 0 0 1-5 5z"/><path fill="#5D21D1" d="M1308.442 825.177h-79.804a5 5 0 0 1-5-5v-7.892a5 5 0 0 1 5-5h79.804a5 5 0 0 1 5 5v7.892a5 5 0 0 1-5 5zM1422.083 825.177h-79.804a5 5 0 0 1-5-5v-7.892a5 5 0 0 1 5-5h79.804a5 5 0 0 1 5 5v7.892a5 5 0 0 1-5 5z"/></g></g></g><g style="display:block"><path fill="#2E186A" d="m1582 859-50 6-18 32 16 35 40 2 32-7 6-42-26-26zM697 853l-24 5-12 38 22 36h45l24-14 5-35-21-27-39-3zM424 860h-17l-30 26 5 38 48 9 30-15 11-23-11-31-36-4zM588 821l-28 6-21 90 39 32 26-18 1-93-17-17z"/><path fill="#5D21D1" d="M1480.773 679.387h-388.811a11.002 11.002 0 0 0-10.707 8.471l-54.052 228.816H886.269s-7.808 40.337 37.734 40.337h496.383c5.101 0 9.533-3.507 10.706-8.471l60.386-255.625c1.632-6.907-3.608-13.528-10.705-13.528z"/><path fill="none" stroke="#2D176A" stroke-linecap="round" stroke-linejoin="round" stroke-width="6" d="M1611.103 851.892a26.108 26.108 0 0 1 6.757-1.407c14.359-1.056 26.857 9.728 27.914 24.089 1.056 14.359-9.729 26.857-24.089 27.913a26.19 26.19 0 0 1-5.976-.242M1548.275 855.292l-37.27-45.496"/><path fill="#FEBA91" d="M1505.535 841.195v85.808c0 16.569 13.431 30 30 30h50.602c16.57 0 30-13.431 30-30v-85.808h-110.602zm44.741 62.828c.687.453 1.031 1.04 1.031 1.761a1.94 1.94 0 0 1-.59 1.422 1.938 1.938 0 0 1-1.422.591c-.37 0-.705-.085-1.006-.253l-20.024-12.023c-.738-.469-1.107-1.074-1.107-1.812s.37-1.341 1.107-1.811l20.024-12.023a2.028 2.028 0 0 1 1.006-.253c.553 0 1.027.198 1.421.592.394.394.591.868.591 1.421 0 .722-.344 1.309-1.03 1.761l-17.207 10.313 17.206 10.314zm25.005-29.583-16.1 40.25c-.1.201-.235.386-.402.554a1.96 1.96 0 0 1-1.434.602 1.938 1.938 0 0 1-1.422-.591 1.937 1.937 0 0 1-.59-1.422 2.1 2.1 0 0 1 .175-.854l16.1-40.25c.101-.201.243-.394.428-.578a1.914 1.914 0 0 1 1.41-.578c.552 0 1.025.196 1.42.591.393.393.591.867.591 1.42 0 .302-.059.587-.176.856zm27.244 21.081-20.024 12.023a2.038 2.038 0 0 1-1.007.253 1.936 1.936 0 0 1-1.42-.591 1.94 1.94 0 0 1-.592-1.422c0-.721.344-1.308 1.031-1.761l17.207-10.314-17.207-10.313c-.687-.452-1.03-1.039-1.03-1.761 0-.553.196-1.027.59-1.421a1.937 1.937 0 0 1 1.421-.592c.37 0 .705.085 1.007.253l20.024 12.023c.737.47 1.105 1.073 1.105 1.811s-.368 1.343-1.105 1.812z"/><path fill="none" stroke="#2D176A" stroke-linecap="round" stroke-linejoin="round" stroke-width="6" d="M371.954 902.486c-14.36 1.057-26.857-9.728-27.914-24.088-1.057-14.359 9.728-26.857 24.088-27.914a26.275 26.275 0 0 1 4.734.078"/><path fill="#FEBA91" d="M368.573 841.195v85.808c0 16.569 13.432 30 30 30h50.603c16.568 0 30-13.431 30-30v-85.808H368.573zm44.742 62.828c.687.453 1.031 1.04 1.031 1.761a1.94 1.94 0 0 1-.591 1.422 1.938 1.938 0 0 1-1.421.591c-.369 0-.705-.085-1.006-.253l-20.024-12.023c-.738-.469-1.107-1.074-1.107-1.812s.369-1.341 1.107-1.811l20.024-12.023a2.031 2.031 0 0 1 1.006-.253c.553 0 1.027.198 1.421.592.394.394.591.868.591 1.421 0 .722-.344 1.309-1.031 1.761l-17.207 10.313 17.207 10.314zm42.186-8.502-20.024 12.023a2.037 2.037 0 0 1-1.006.253 1.94 1.94 0 0 1-1.422-.591 1.94 1.94 0 0 1-.591-1.422c0-.721.344-1.308 1.032-1.761l17.206-10.314-17.206-10.313c-.688-.452-1.032-1.039-1.032-1.761 0-.553.197-1.027.591-1.421a1.941 1.941 0 0 1 1.422-.592c.368 0 .704.085 1.006.253l20.024 12.023c.738.47 1.106 1.073 1.106 1.811s-.368 1.343-1.106 1.812z"/><path fill="none" stroke="#FEBA91" stroke-linecap="round" stroke-linejoin="round" stroke-width="6" d="M554.102 806.618 540.426 781.8"/><path fill="#FEBA91" d="M589.027 890.063c-1.145-1.145-2.53-1.717-4.153-1.717-1.624 0-3.009.572-4.153 1.717-1.145 1.145-1.717 2.529-1.717 4.152 0 1.624.572 3.009 1.717 4.154 1.144 1.144 2.529 1.716 4.153 1.716 1.623 0 3.008-.572 4.153-1.716 1.145-1.145 1.717-2.53 1.717-4.154 0-1.623-.572-3.007-1.717-4.152zM584.874 881.302c1.624 0 3.008-.572 4.152-1.717 1.145-1.144 1.718-2.529 1.718-4.153 0-1.623-.573-3.009-1.718-4.153-1.144-1.145-2.528-1.717-4.152-1.717s-3.008.572-4.153 1.717c-1.145 1.144-1.717 2.53-1.717 4.153 0 1.624.572 3.009 1.717 4.153 1.145 1.145 2.529 1.717 4.153 1.717zM589.027 917.15c1.145-1.145 1.717-2.529 1.717-4.152 0-1.624-.572-3.008-1.717-4.153-1.145-1.144-2.53-1.716-4.153-1.716-1.624 0-3.009.572-4.153 1.716-1.145 1.145-1.717 2.529-1.717 4.153 0 1.623.572 3.007 1.717 4.152 1.144 1.145 2.529 1.717 4.153 1.717 1.623 0 3.008-.572 4.153-1.717z"/><path fill="#FEBA91" d="m606.966 827.365-13.291-17.289h-64.084l-13.292 17.289c-1.285 1.672-1.968 3.618-1.968 5.605v105.263c0 3.253 1.811 6.332 4.93 8.272 4.11 2.556 9.352 6.522 9.72 10.307h65.304c.368-3.785 5.61-7.751 9.719-10.307 3.119-1.94 4.93-5.019 4.93-8.272V832.97c0-1.987-.683-3.933-1.968-5.605zm-27.814 20.186 7.014-11.68c.274-.431.626-.646 1.056-.646.431 0 .783.215 1.057.646l7.014 11.68c.098.176.147.372.147.588 0 .322-.115.598-.345.828a1.13 1.13 0 0 1-.829.346c-.421 0-.763-.202-1.027-.602l-6.017-10.037-6.016 10.037c-.264.4-.607.602-1.027.602-.323 0-.6-.116-.829-.346a1.13 1.13 0 0 1-.345-.828c0-.216.048-.412.147-.588zm.455 4.402a1.16 1.16 0 0 1 .689-.219c.323 0 .599.115.829.344.23.231.345.507.345.83 0 .323-.103.581-.308.778-.206.195-.352.338-.44.425-1.145 1.145-1.717 2.529-1.717 4.153 0 1.623.508 2.92 1.526 3.888.284.235.621.352 1.013.352.459-.029.772-.269.939-.719l2.392-7.218c.332-.891.679-1.512 1.041-1.865.685-.694 1.512-1.042 2.48-1.042.969 0 1.815.362 2.539 1.086 1.438 1.408 2.157 3.248 2.157 5.518 0 2.455-.983 4.558-2.95 6.31a.97.97 0 0 1-.689.219c-.323 0-.6-.114-.829-.344a1.132 1.132 0 0 1-.345-.83c0-.322.103-.582.308-.777.206-.195.352-.338.44-.426 1.145-1.144 1.717-2.529 1.717-4.152 0-1.624-.508-2.92-1.526-3.889a1.542 1.542 0 0 0-1.013-.351c-.459.029-.772.268-.939.718l-2.391 7.219c-.333.891-.68 1.512-1.042 1.864-.685.695-1.512 1.042-2.48 1.042-.969 0-1.815-.362-2.539-1.086-1.438-1.408-2.157-3.248-2.157-5.517 0-2.465.983-4.569 2.95-6.311zm-.543 17.668c1.604-1.604 3.541-2.406 5.811-2.406 2.269 0 4.206.802 5.81 2.406 1.605 1.604 2.407 3.541 2.407 5.811 0 2.269-.802 4.207-2.407 5.811-1.604 1.605-3.541 2.407-5.81 2.407-2.27 0-4.207-.802-5.811-2.407-1.605-1.604-2.407-3.542-2.407-5.811 0-2.27.802-4.207 2.407-5.811zm-2.062 51.25a1.132 1.132 0 0 1-.345-.83c0-.322.115-.599.345-.828.23-.23.506-.346.829-.346h1.291c-1.643-1.642-2.465-3.599-2.465-5.869 0-2.269.802-4.207 2.407-5.81 1.604-1.606 3.541-2.408 5.811-2.408 2.269 0 4.206.802 5.81 2.408 1.605 1.603 2.407 3.541 2.407 5.81 0 2.27-.802 4.207-2.407 5.811-1.604 1.604-3.541 2.406-5.81 2.406h-7.044c-.323 0-.599-.114-.829-.344zm18.291 4.453-7.014 11.681c-.274.431-.626.646-1.057.646-.43 0-.782-.215-1.056-.646l-7.014-11.681a1.171 1.171 0 0 1-.147-.587c0-.323.115-.598.345-.829.229-.23.506-.344.829-.344.42 0 .763.2 1.027.601l6.016 10.037 6.017-10.037c.264-.401.606-.601 1.027-.601.323 0 .599.114.829.344.23.231.345.506.345.829 0 .216-.049.412-.147.587zm4.527-23.236a1.13 1.13 0 0 1-.829.345h-14.116c-2.27 0-4.207-.802-5.811-2.407-1.605-1.604-2.407-3.542-2.407-5.811 0-2.27.802-4.207 2.407-5.811 1.604-1.604 3.541-2.406 5.811-2.406 2.269 0 4.206.802 5.81 2.406 1.605 1.604 2.407 3.541 2.407 5.811 0 2.269-.802 4.207-2.407 5.811l-.058.059h8.364c.323 0 .599.114.829.345.23.23.345.506.345.829 0 .323-.115.599-.345.829z"/><path fill="none" stroke="#2D176A" stroke-linecap="round" stroke-linejoin="round" stroke-width="6" d="M523.75 809.259h75.764M761.995 851.135a26.128 26.128 0 0 1 4.188-.65c14.36-1.056 26.858 9.728 27.914 24.088 1.057 14.36-9.728 26.858-24.088 27.914a25.998 25.998 0 0 1-9.599-1.081"/><path fill="#FEBA91" d="M653.859 841.195v85.808c0 16.569 13.431 30 30 30h50.602c16.569 0 30-13.431 30-30v-85.808H653.859zm44.742 62.828c.687.453 1.031 1.04 1.031 1.761a1.94 1.94 0 0 1-.591 1.422 1.938 1.938 0 0 1-1.421.591c-.37 0-.705-.085-1.006-.253l-20.025-12.023c-.737-.469-1.106-1.074-1.106-1.812s.369-1.341 1.106-1.811l20.025-12.023a2.028 2.028 0 0 1 1.006-.253c.553 0 1.027.198 1.421.592.394.394.591.868.591 1.421 0 .722-.344 1.309-1.031 1.761l-17.207 10.313 17.207 10.314zm25.005-29.583-16.1 40.25c-.1.201-.235.386-.402.554a1.961 1.961 0 0 1-1.435.602 1.936 1.936 0 0 1-1.421-.591 1.937 1.937 0 0 1-.591-1.422 2.1 2.1 0 0 1 .176-.854l16.1-40.25c.101-.201.243-.394.428-.578a1.914 1.914 0 0 1 1.408-.578c.554 0 1.027.196 1.422.591.393.393.591.867.591 1.42 0 .302-.059.587-.176.856zm27.243 21.081-20.023 12.023a2.038 2.038 0 0 1-1.007.253 1.936 1.936 0 0 1-1.421-.591 1.937 1.937 0 0 1-.592-1.422c0-.721.344-1.308 1.032-1.761l17.206-10.314-17.206-10.313c-.688-.452-1.032-1.039-1.032-1.761 0-.553.197-1.027.592-1.421a1.937 1.937 0 0 1 1.421-.592c.369 0 .705.085 1.007.253l20.023 12.023c.738.47 1.106 1.073 1.106 1.811s-.368 1.343-1.106 1.812z"/><path fill="none" stroke="#2D176A" stroke-linecap="round" stroke-linejoin="round" stroke-width="6" d="M129.759 959.518h1636.482"/></g></g></svg>